<svg width="64" height="64" viewBox="0 0 64 64" fill="none" xmlns="http://www.w3.org/2000/svg">
<path d="M10.3917 56.961C8.419 56.961 6.87699 56.4053 5.76563 55.294C4.68206 54.1826 4.14027 52.6962 4.14027 50.8346V24.8992H9.9749V50.9597C9.9749 51.1819 10.0027 51.3348 10.0582 51.4181C10.1138 51.5015 10.2111 51.5431 10.35 51.5431L13.8137 51.5433V24.8993H23.1579V30.3172H19.2316V56.9611L10.3917 56.961ZM3.72351 16.1186L22.7828 16.1187V21.5366L3.72351 21.5364V16.1186ZM22.7412 21.5366H19.4817V16.1187H32.8731V21.5366H28.5758V57.6279H22.7412V21.5366Z" fill="#F1F1F1"/>
<path d="M22.8043 16.5355L21.1373 6.74054H26.7635L28.4306 16.5355H22.8043Z" fill="#F1F1F1"/>
<path d="M39.2265 57.6279C37.2261 57.6279 35.6841 57.1 34.6005 56.0443C33.5169 54.9885 32.9751 53.4742 32.9751 51.5016V45.0798H38.8098V50.7965C38.8098 51.5772 39.4426 52.2101 40.2233 52.2101H43.005V40.4074H32.9751V24.8993H42.9633V21.5366H32.8731V16.1187H53.0307V21.5366H48.7979V30.3172H38.8098L38.8098 34.9896H48.7979V57.6279H39.2265Z" fill="#F1F1F1"/>
<path d="M42.9444 10.8248C42.9444 9.51893 43.3334 8.51871 44.1113 7.82411C44.8615 7.10173 45.9729 6.74054 47.4454 6.74054H58.8882V16.1187H53.0535V11.4458H50.0259C49.2452 11.4458 48.6123 12.0787 48.6123 12.8593V16.5355H42.9444V10.8248ZM53.0119 21.5366H49.0291V16.1187H59.5133V21.5366H58.8465V57.6279H53.0119V21.5366Z" fill="#F1F1F1"/>
</svg>
